<svg width="105" height="75" viewBox="0 0 105 75" fill="none" xmlns="http://www.w3.org/2000/svg">
<path d="M10.6322 9.08355C10.4541 8.87249 10.4808 8.55704 10.6919 8.37897L14.1312 5.47704C14.3422 5.29896 14.6577 5.32569 14.8358 5.53675C15.0139 5.7478 14.9871 6.06325 14.7761 6.24133L11.7189 8.82082L14.2984 11.878C14.4765 12.089 14.4497 12.4045 14.2387 12.5826C14.0276 12.7606 13.7122 12.7339 13.5341 12.5229L10.6322 9.08355ZM89.5196 74.3236C88.0304 63.6552 83.064 48.633 71.1464 35.6611C59.2381 22.6993 40.3581 11.7496 10.9721 9.25932L11.0565 8.2629C40.6708 10.7725 59.7909 21.8229 71.8828 34.9845C83.9653 48.136 88.999 63.3606 90.51 74.1854L89.5196 74.3236Z" fill="white"/>
</svg>
