<svg width="148" height="84" viewBox="0 0 148 84" fill="none" xmlns="http://www.w3.org/2000/svg">
<path d="M36.9107 23.5258C37.0246 24.0254 36.6526 25.6869 35.7948 28.5103C35.6232 29.075 34.6924 31.9901 33.0024 37.2556C31.777 41.1013 30.9565 43.8411 30.5407 45.475C30.0504 47.2761 29.5961 49.4819 29.1777 52.0925C28.6642 55.438 28.1506 58.7835 27.6371 62.129C27.3847 63.1626 27.0065 64.0559 26.5025 64.809C26.026 65.5183 25.5023 65.938 24.9314 66.0682C24.4675 66.174 24.018 66.0137 23.5829 65.5873C23.1835 65.1529 22.8577 64.3825 22.6055 63.2763C21.678 59.2082 21.0819 54.783 20.8174 50.0007C20.5804 45.1745 20.3929 40.3183 20.2548 35.4321C18.2681 40.8779 16.5909 45.9528 15.2234 50.6568C13.7976 55.5992 12.8376 59.7035 12.3435 62.9695C12.1838 64.2448 12.02 65.5021 11.8521 66.7417C11.4983 68.812 10.8753 69.9488 9.98321 70.1522C9.31648 70.1916 8.89361 69.8188 8.71461 69.0337C8.42984 67.7848 8.66505 65.4412 9.42026 62.0031C9.72272 60.6953 10.0252 59.3875 10.3276 58.0797C11.3953 53.7069 12.9588 48.5453 15.0182 42.5949C17.1715 36.3979 18.9125 32.0968 20.2411 29.6916C20.9523 28.3657 21.647 27.6255 22.325 27.4709C23.0744 27.3 23.5386 27.6071 23.7176 28.3922C23.7908 28.7134 23.7845 29.0151 23.6987 29.2974C22.9517 32.7713 22.8418 38.0519 23.3691 45.1393C23.8145 51.0442 24.4277 55.7094 25.2088 59.1352C25.3785 58.2331 25.8022 56.2219 26.4797 53.1018C27.0571 50.5301 27.4767 48.5011 27.7384 47.0149C28.3077 44.4075 28.8155 42.1895 29.262 40.3608C29.7974 38.099 30.4154 35.7057 31.1161 33.1809C31.8525 30.648 32.5801 28.3235 33.2989 26.2076C34.0096 24.0559 34.8467 22.8703 35.8102 22.6506C36.373 22.4847 36.7398 22.7765 36.9107 23.5258Z" fill="white"/>
<path d="M45.886 31.4462C46.0812 32.3027 45.8386 33.2965 45.158 34.4277C44.505 35.5151 43.8573 36.132 43.215 36.2785C42.4656 36.4493 41.9892 36.0887 41.7858 35.1966C41.5987 34.3758 41.8276 33.4039 42.4724 32.2809C43.1173 31.1578 43.7609 30.523 44.4033 30.3766C45.1883 30.1976 45.6826 30.5541 45.886 31.4462ZM42.6671 42.7664C42.7892 43.3017 42.6833 43.9077 42.3496 44.5844C41.6465 45.946 40.8979 48.4254 40.1039 52.0225C39.3017 55.584 38.9319 57.9958 38.9944 59.2579C39.057 60.52 38.7054 61.2008 37.9398 61.3003C37.6543 61.3654 37.3597 61.2261 37.0561 60.8824C36.7525 60.5387 36.5478 60.1349 36.442 59.671C36.0352 57.8867 36.2946 55.2373 37.2201 51.7228C38.0015 48.7291 39.0103 45.9089 40.2462 43.2621C40.3758 43.0073 40.5411 42.7444 40.7421 42.4733C40.9787 42.1941 41.2577 42.0179 41.5788 41.9447C42.166 41.8858 42.5288 42.1598 42.6671 42.7664Z" fill="white"/>
<path d="M60.9949 44.2185C61.2797 45.4675 60.7449 47.4852 59.3907 50.2716C57.8047 53.5238 55.692 56.2766 53.0525 58.5302C52.4413 61.4475 51.8257 63.9341 51.2058 65.99C50.3092 68.9724 49.3828 71.2483 48.4267 72.8177C47.1952 74.8254 45.7944 76.0082 44.2242 76.3662C42.4757 76.7649 41.3451 75.8401 40.8325 73.592C40.4176 71.7721 41.0697 69.4461 42.789 66.614C44.5083 63.7819 47.012 61.0149 50.3001 58.3131C50.6758 57.3265 50.9218 56.5947 51.0383 56.1177C51.2324 55.3226 51.2685 54.6574 51.1464 54.1222C50.5566 55.1576 49.9359 55.9749 49.2841 56.5739C48.6243 57.1373 47.9553 57.4963 47.2773 57.6509C45.8499 57.9764 44.9409 57.2827 44.5504 55.5698C44.0378 53.3217 44.7282 50.0109 46.6216 45.6375C48.6446 41.0093 50.8337 38.4267 53.1889 37.8897C54.0453 37.6945 54.7844 37.8075 55.406 38.2289C56.0276 38.6502 56.428 39.2534 56.607 40.0385C56.729 40.5738 56.7537 41.0937 56.681 41.5983C56.6359 42.059 56.4741 42.584 56.1955 43.173C56.8021 43.0347 57.1063 43.1343 57.1082 43.4717C56.3731 45.5163 55.7166 47.4116 55.1387 49.1576C54.4668 51.1502 54.1784 52.849 54.2735 54.2538C55.7485 52.491 56.9688 50.5985 57.9343 48.5765C58.7232 46.9326 59.508 45.2708 60.2888 43.5912C60.6456 43.5098 60.881 43.7189 60.9949 44.2185ZM53.8122 41.8582C53.682 41.2873 53.3315 41.0669 52.7605 41.1971C51.7613 41.4249 50.4785 43.1251 48.9119 46.2978C47.2433 49.6814 46.5962 52.194 46.9705 53.8355C47.1576 54.6563 47.5723 54.9934 48.2146 54.8469C48.857 54.7005 49.499 54.1412 50.1407 53.169C50.9008 52.0572 51.6556 50.3459 52.4051 48.0353C51.7741 48.0665 51.4382 47.993 51.3975 47.8145C51.822 47.042 52.27 46.2078 52.7415 45.312C53.2405 44.3724 53.5846 43.4117 53.7737 42.4301L53.8122 41.8582ZM49.8256 61.9125C48.5767 62.1973 47.1079 63.6584 45.4193 66.2958C43.7032 68.977 42.9875 70.9421 43.2723 72.1911C43.3374 72.4765 43.5192 72.6979 43.8178 72.855C44.1164 73.0122 44.4263 73.0541 44.7475 72.9809C45.711 72.7612 46.6501 71.3646 47.5649 68.791C48.3144 66.4803 49.068 64.1875 49.8256 61.9125Z" fill="white"/>
<path d="M77.8717 40.8773C78.2053 42.3403 77.699 44.4829 76.3529 47.305C74.8496 50.4257 73.1344 52.2058 71.2074 52.6451C70.5651 52.7916 70.0346 52.6873 69.6158 52.3323C69.2245 51.9335 68.9434 51.3594 68.7726 50.6101C68.4878 49.3611 68.5483 47.7331 68.9541 45.726C69.3599 43.719 70.0074 41.6193 70.8965 39.4269C67.525 43.5743 65.4419 48.1035 64.6472 53.0147C64.3547 54.6956 63.8338 55.6215 63.0844 55.7924C62.2993 55.9714 61.797 55.5791 61.5773 54.6157C61.3901 53.7949 61.59 51.8724 62.1767 48.848C62.6715 46.4077 63.1971 44.1856 63.7538 42.1817C65.2848 36.8774 66.7689 30.6265 68.2061 23.429C68.8705 20.0866 69.738 18.2934 70.8085 18.0493C71.772 17.8296 72.3636 18.2015 72.5833 19.165C72.7297 19.8073 72.323 21.6456 71.3631 24.68C70.4389 27.7062 69.4968 30.7365 68.5369 33.7709C67.3942 37.4851 66.722 40.1347 66.5203 41.7199C67.8151 39.6603 69.1101 38.0136 70.4055 36.7797C71.4836 35.7456 72.4152 35.139 73.2002 34.96C74.0567 34.7647 74.5663 35.0239 74.729 35.7376C74.7778 35.9517 74.7618 36.2932 74.681 36.7621C73.6529 39.6619 72.8887 41.8257 72.3884 43.2537C71.4899 45.8987 71.122 47.578 71.2847 48.2917C71.3986 48.7913 71.6875 48.9882 72.1514 48.8824C72.9008 48.7115 73.5194 48.2139 74.0071 47.3894C74.0622 47.3018 74.7018 45.5793 75.9259 42.2219C76.3648 41.1833 76.8341 40.6071 77.3336 40.4932C77.6191 40.4281 77.7985 40.5561 77.8717 40.8773Z" fill="white"/>
<path d="M93.6282 26.248C93.9906 27.1789 93.3755 27.9386 91.7828 28.5269C89.0175 29.5704 87.1801 30.4023 86.2704 31.0226C85.1489 34.9948 84.3718 38.4192 83.939 41.2958C83.5708 43.6321 83.5006 45.2999 83.7284 46.2991C83.9074 47.0841 84.3002 47.4075 84.9068 47.2692C85.6205 47.1065 86.4141 46.3061 87.2875 44.8682C88.1885 43.3864 88.8387 41.7928 89.2382 40.0875C89.3772 39.3801 89.6609 38.9776 90.0891 38.88C90.6438 38.6784 91.0025 38.9345 91.1652 39.6482C91.5069 41.1469 90.9227 43.1947 89.4125 45.7914C87.9299 48.3443 86.3679 49.8079 84.7264 50.1821C83.8343 50.3855 82.9897 50.2215 82.1928 49.6899C81.3959 49.1584 80.8673 48.3216 80.6069 47.1797C80.2164 45.4669 80.3242 43.0585 80.9304 39.9546C81.3863 37.6734 81.9971 35.4131 82.7629 33.1738C82.0786 33.6301 81.5402 33.9031 81.1477 33.9926C80.3269 34.1797 79.8189 33.845 79.6236 32.9886C79.469 32.3106 79.8628 31.7328 80.8051 31.2552C81.783 30.7694 82.7787 30.2796 83.7923 29.7857C84.9175 26.4885 85.8122 24.2385 86.4765 23.0359C87.1327 21.7977 87.8176 21.0972 88.5313 20.9345C89.0503 20.741 89.3912 21.0012 89.5539 21.7149C89.6841 22.2858 89.4925 23.1742 88.979 24.3799C88.2227 26.1666 87.7919 27.2408 87.6867 27.6027C88.4943 27.1933 89.2387 26.8359 89.9198 26.5304C90.601 26.2249 91.2449 26.003 91.8515 25.8647C92.9221 25.6206 93.5143 25.7484 93.6282 26.248Z" fill="white"/>
<path d="M108.966 9.85577C109.601 12.6392 108.496 17.0956 105.652 23.2249C103.086 28.7652 100.204 33.4954 97.0059 37.4155C96.4336 40.1738 96.245 41.9811 96.4403 42.8376C96.5868 43.4799 96.8206 43.7644 97.1417 43.6912C97.7484 43.5529 98.494 42.7072 99.3787 41.154C100.291 39.557 100.799 38.1648 100.904 36.9772C101.062 36.1903 101.374 35.7439 101.837 35.6381C102.087 35.5812 102.326 35.6394 102.553 35.8128C102.808 35.9424 102.976 36.1857 103.057 36.5425C103.35 37.8272 102.643 39.8279 100.935 42.5449C99.2266 45.2618 97.7839 46.7545 96.6063 47.023C95.2859 47.324 94.4264 46.6003 94.0277 44.8517C93.922 44.3878 93.8769 43.7787 93.8926 43.0243C94.2968 36.4002 95.6686 29.5743 98.0079 22.5465C100.195 16.0039 102.437 11.5134 104.734 9.07516C105.441 8.38843 106.062 7.98405 106.597 7.86201C107.168 7.73182 107.667 7.86207 108.094 8.25274C108.513 8.60773 108.804 9.14208 108.966 9.85577ZM106.6 11.5779C106.486 11.0783 106.233 10.8732 105.84 10.9627C104.948 11.1661 103.553 13.7741 101.655 18.7867C99.7494 23.7636 98.6411 27.958 98.3304 31.3699C100.468 28.8928 102.483 25.2988 104.375 20.588C106.2 16.08 106.942 13.0766 106.6 11.5779Z" fill="white"/>
<path d="M114.572 15.7853C114.767 16.6417 114.525 17.6356 113.844 18.7668C113.191 19.8542 112.543 20.4711 111.901 20.6175C111.152 20.7884 110.675 20.4278 110.472 19.5357C110.285 18.7149 110.514 17.743 111.159 16.6199C111.803 15.4969 112.447 14.8621 113.089 14.7156C113.874 14.5366 114.369 14.8932 114.572 15.7853ZM111.353 27.1055C111.475 27.6407 111.369 28.2467 111.036 28.9235C110.333 30.2851 109.584 32.7644 108.79 36.3616C107.988 39.9231 107.618 42.3349 107.681 43.597C107.743 44.8591 107.391 45.5399 106.626 45.6394C106.34 45.7045 106.046 45.5652 105.742 45.2214C105.439 44.8777 105.234 44.4739 105.128 44.01C104.721 42.2258 104.981 39.5764 105.906 36.0619C106.688 33.0682 107.696 30.248 108.932 27.6011C109.062 27.3464 109.227 27.0834 109.428 26.8124C109.665 26.5332 109.944 26.357 110.265 26.2837C110.852 26.2249 111.215 26.4988 111.353 27.1055Z" fill="white"/>
<path d="M126.912 4.80675C127.034 5.34202 126.847 6.00405 126.351 6.79282C125.139 8.72095 123.833 11.5528 122.432 15.2883C121.032 19.0237 119.929 22.5035 119.125 25.7276C119.955 25.0878 120.748 24.5316 121.504 24.059C122.691 23.3379 123.766 22.8675 124.73 22.6478C125.55 22.4607 126.291 22.4983 126.952 22.7606C127.648 23.0148 128.097 23.4193 128.298 23.974C128.371 24.2951 128.213 24.6692 127.822 25.0961C127.467 25.5149 127.093 25.769 126.701 25.8585C126.558 25.8911 126.067 25.7965 125.228 25.5749C124.787 25.4503 124.352 25.4368 123.924 25.5344C123.246 25.689 122.214 26.1869 120.83 27.0283C119.437 27.8339 118.429 28.6831 117.807 29.5757C119.189 29.7111 120.35 30.4411 121.29 31.7658C122.067 32.8652 122.642 34.2356 123.016 35.8771C124.619 42.907 124.432 48.6744 122.456 53.1793C120.947 56.6017 119.014 58.5815 116.659 59.1185C115.803 59.3137 114.969 59.0345 114.159 58.2807C113.322 57.5707 112.752 56.5555 112.451 55.2352C112.199 54.129 112.06 52.9407 112.033 51.6705C112.014 50.436 112.068 49.1097 112.196 47.6917C112.435 45.1219 112.978 41.6571 113.824 37.2974C114.171 35.5288 114.346 34.4004 114.347 33.9121C114.212 33.9803 114.038 34.0389 113.824 34.0877C113.253 34.2179 112.923 34.0867 112.833 33.6942C112.727 33.2303 112.938 32.5066 113.464 31.5231C113.991 30.5396 114.741 29.4676 115.715 28.307C116.657 24.8638 117.372 22.3171 117.859 20.6669C118.661 17.9312 119.52 15.2765 120.435 12.7029C121.377 10.0855 122.275 7.92884 123.127 6.23295C123.433 5.60004 123.807 5.10174 124.25 4.73804C124.684 4.33865 125.116 4.09014 125.544 3.9925C126.293 3.82164 126.749 4.09306 126.912 4.80675ZM120.705 36.8546C120.404 35.5342 119.991 34.4646 119.467 33.6457C118.942 32.8268 118.298 32.3917 117.536 32.3403C116.981 34.6817 116.319 38.5302 115.551 43.8859C114.818 49.2335 114.562 52.389 114.781 53.3525C114.96 54.1376 115.237 54.6938 115.612 55.0213C115.995 55.3844 116.365 55.5253 116.722 55.4439C118.185 55.1103 119.425 53.1384 120.441 49.5281C121.61 45.4326 121.698 41.2081 120.705 36.8546Z" fill="white"/>
<path d="M141.597 28.3183C141.881 29.5673 140.961 31.5415 138.836 34.2408C136.566 37.1236 134.324 38.8172 132.112 39.3217C131.005 39.5739 129.93 39.3873 128.887 38.7618C127.871 38.0925 127.224 37.1512 126.948 35.9379C126.598 34.4035 126.679 32.6205 127.192 30.5891C127.619 28.8399 128.223 27.3697 129.002 26.1784C130.088 24.3542 131.097 23.0167 132.029 22.166C132.953 21.2796 133.772 20.755 134.486 20.5923C135.164 20.4377 135.766 20.5257 136.291 20.8563C136.817 21.1869 137.149 21.6555 137.288 22.2621C137.548 23.404 137.255 24.9162 136.408 26.7986C135.792 28.2153 135.005 29.5397 134.047 30.7717C133.634 31.429 132.985 32.1213 132.1 32.8487C131.467 33.3683 130.756 33.8685 129.964 34.3492C130.159 35.2057 130.484 35.8073 130.939 36.1542C131.421 36.4572 132.001 36.5314 132.679 36.3768C133.785 36.1246 135.019 35.2801 136.381 33.8435C137.778 32.3986 138.931 30.7845 139.838 29.0009C140.254 28.1927 140.605 27.7561 140.891 27.691C141.247 27.6096 141.483 27.8188 141.597 28.3183ZM134.953 24.3711C134.855 23.9429 134.584 23.7419 134.14 23.7682C133.569 23.8983 132.98 24.4455 132.374 25.4095C131.898 26.1188 131.385 27.0804 130.836 28.2942C130.314 29.4643 129.943 30.4687 129.721 31.3076C130.899 31.0391 132.118 30.0478 133.379 28.3338C134.64 26.6198 135.165 25.2989 134.953 24.3711Z" fill="white"/>
</svg>
