<svg width="1940" height="496" viewBox="0 0 1940 496" fill="none" xmlns="http://www.w3.org/2000/svg">
<g opacity="0.5">
<path d="M26.25 334.281H0V491.781H30.4062V388.969L102.594 491.781H128.844V334.281H98.6563V437.094L26.25 334.281Z" fill="#372B43" fill-opacity="0.62"/>
<path d="M231.451 495.063C253.326 495.063 274.982 486.75 289.42 469.25C302.326 453.5 307.357 434.906 307.795 413.031C307.357 392.031 302.764 372.781 289.42 356.594C275.42 339.531 254.201 331 231.451 331C208.701 331 187.264 339.312 173.482 356.594C160.795 371.906 155.107 392.031 155.107 413.031C155.107 434.031 160.795 453.938 173.482 469.25C187.045 486.313 208.92 495.063 231.451 495.063ZM231.451 467.063C217.889 467.281 204.764 461.813 197.107 451.313C189.014 440.813 186.607 426.813 186.389 413.031C186.607 399.25 189.014 385.031 197.107 374.75C204.764 364.25 217.889 358.781 231.451 359C245.014 358.781 257.92 364.25 265.795 374.75C273.67 385.031 276.295 399.25 276.295 413.031C276.295 426.813 273.67 440.813 265.795 451.313C257.92 461.813 245.014 467.281 231.451 467.063Z" fill="#372B43" fill-opacity="0.62"/>
<path d="M443.516 334.281H314.453V364.031H364.109V491.781H393.859V364.031H443.516V334.281Z" fill="#372B43" fill-opacity="0.62"/>
<path d="M552.59 491.781H583.215L535.09 334.281H490.684L442.559 491.781H473.184L480.621 467.281H544.934L552.59 491.781ZM489.152 439.281L512.559 362.281L536.402 439.281H489.152Z" fill="#372B43" fill-opacity="0.62"/>
<path d="M707.779 415C705.373 411.938 702.748 409.094 699.904 406.469C700.123 406.25 700.561 405.813 700.779 405.375C706.686 397.938 710.186 388.313 709.967 379.125C709.748 369.5 706.686 359.875 700.779 352.438C695.529 344.781 687.436 339.094 678.248 336.469C673.873 334.938 669.279 334.281 664.686 334.281H601.904V491.781H668.404C673.436 491.781 678.467 490.688 683.279 489.375C692.904 486.313 701.654 480.406 707.779 472.313C713.904 463.781 717.186 453.719 717.186 443.656C717.186 433.156 713.904 423.094 707.779 415ZM664.467 362.063C667.967 362.063 673.217 364.906 675.404 367.75C678.248 370.813 679.561 374.969 679.779 379.125C679.998 382.844 678.467 386.563 676.061 389.406C673.654 392.469 669.279 394.875 666.217 395.531H632.092V362.063H664.467ZM687.217 443.656C686.998 449.344 685.029 454.813 680.654 458.531C677.154 461.594 672.779 463.781 667.967 463.781H632.092V423.531H667.967C672.998 423.531 677.154 424.625 681.529 429C685.248 432.938 687.436 438.406 687.217 443.656Z" fill="#372B43" fill-opacity="0.62"/>
</g>
<g opacity="0.5">
<path d="M1099.25 3.28125H1073V160.781H1103.41V57.9688L1175.59 160.781H1201.84V3.28125H1171.66V106.094L1099.25 3.28125Z" fill="#372B43" fill-opacity="0.62"/>
<path d="M1304.45 164.063C1326.33 164.063 1347.98 155.75 1362.42 138.25C1375.33 122.5 1380.36 103.906 1380.79 82.0313C1380.36 61.0313 1375.76 41.7813 1362.42 25.5938C1348.42 8.53126 1327.2 0 1304.45 0C1281.7 0 1260.26 8.3125 1246.48 25.5938C1233.79 40.9063 1228.11 61.0313 1228.11 82.0313C1228.11 103.031 1233.79 122.938 1246.48 138.25C1260.04 155.313 1281.92 164.063 1304.45 164.063ZM1304.45 136.063C1290.89 136.281 1277.76 130.813 1270.11 120.313C1262.01 109.813 1259.61 95.8125 1259.39 82.0313C1259.61 68.25 1262.01 54.0312 1270.11 43.75C1277.76 33.25 1290.89 27.7813 1304.45 28C1318.01 27.7813 1330.92 33.25 1338.79 43.75C1346.67 54.0312 1349.29 68.25 1349.29 82.0313C1349.29 95.8125 1346.67 109.813 1338.79 120.313C1330.92 130.813 1318.01 136.281 1304.45 136.063Z" fill="#372B43" fill-opacity="0.62"/>
<path d="M1516.52 3.28125H1387.45V33.0313H1437.11V160.781H1466.86V33.0313H1516.52V3.28125Z" fill="#372B43" fill-opacity="0.62"/>
<path d="M1625.59 160.781H1656.21L1608.09 3.28125H1563.68L1515.56 160.781H1546.18L1553.62 136.281H1617.93L1625.59 160.781ZM1562.15 108.281L1585.56 31.2813L1609.4 108.281H1562.15Z" fill="#372B43" fill-opacity="0.62"/>
<path d="M1780.78 84C1778.37 80.9375 1775.75 78.0938 1772.9 75.4688C1773.12 75.25 1773.56 74.8125 1773.78 74.375C1779.69 66.9375 1783.19 57.3125 1782.97 48.125C1782.75 38.5 1779.69 28.875 1773.78 21.4375C1768.53 13.7813 1760.44 8.09375 1751.25 5.46875C1746.87 3.9375 1742.28 3.28125 1737.69 3.28125H1674.9V160.781H1741.4C1746.44 160.781 1751.47 159.688 1756.28 158.375C1765.9 155.313 1774.65 149.406 1780.78 141.313C1786.9 132.781 1790.19 122.719 1790.19 112.656C1790.19 102.156 1786.9 92.0938 1780.78 84ZM1737.47 31.0625C1740.97 31.0625 1746.22 33.9063 1748.4 36.75C1751.25 39.8125 1752.56 43.9688 1752.78 48.125C1753 51.8438 1751.47 55.5625 1749.06 58.4063C1746.65 61.4688 1742.28 63.875 1739.22 64.5313H1705.09V31.0625H1737.47ZM1760.22 112.656C1760 118.344 1758.03 123.813 1753.65 127.531C1750.15 130.594 1745.78 132.781 1740.97 132.781H1705.09V92.5313H1740.97C1746 92.5313 1750.15 93.625 1754.53 98C1758.25 101.938 1760.44 107.406 1760.22 112.656Z" fill="#372B43" fill-opacity="0.62"/>
</g>
<g opacity="0.5">
<path d="M1248.25 290.281H1222V447.781H1252.41V344.969L1324.59 447.781H1350.84V290.281H1320.66V393.094L1248.25 290.281Z" fill="#372B43" fill-opacity="0.62"/>
<path d="M1453.45 451.063C1475.33 451.063 1496.98 442.75 1511.42 425.25C1524.33 409.5 1529.36 390.906 1529.79 369.031C1529.36 348.031 1524.76 328.781 1511.42 312.594C1497.42 295.531 1476.2 287 1453.45 287C1430.7 287 1409.26 295.312 1395.48 312.594C1382.79 327.906 1377.11 348.031 1377.11 369.031C1377.11 390.031 1382.79 409.938 1395.48 425.25C1409.04 442.313 1430.92 451.063 1453.45 451.063ZM1453.45 423.063C1439.89 423.281 1426.76 417.813 1419.11 407.313C1411.01 396.813 1408.61 382.813 1408.39 369.031C1408.61 355.25 1411.01 341.031 1419.11 330.75C1426.76 320.25 1439.89 314.781 1453.45 315C1467.01 314.781 1479.92 320.25 1487.79 330.75C1495.67 341.031 1498.29 355.25 1498.29 369.031C1498.29 382.813 1495.67 396.813 1487.79 407.313C1479.92 417.813 1467.01 423.281 1453.45 423.063Z" fill="#372B43" fill-opacity="0.62"/>
<path d="M1665.52 290.281H1536.45V320.031H1586.11V447.781H1615.86V320.031H1665.52V290.281Z" fill="#372B43" fill-opacity="0.62"/>
<path d="M1774.59 447.781H1805.21L1757.09 290.281H1712.68L1664.56 447.781H1695.18L1702.62 423.281H1766.93L1774.59 447.781ZM1711.15 395.281L1734.56 318.281L1758.4 395.281H1711.15Z" fill="#372B43" fill-opacity="0.62"/>
<path d="M1929.78 371C1927.37 367.938 1924.75 365.094 1921.9 362.469C1922.12 362.25 1922.56 361.813 1922.78 361.375C1928.69 353.938 1932.19 344.313 1931.97 335.125C1931.75 325.5 1928.69 315.875 1922.78 308.438C1917.53 300.781 1909.44 295.094 1900.25 292.469C1895.87 290.938 1891.28 290.281 1886.69 290.281H1823.9V447.781H1890.4C1895.44 447.781 1900.47 446.688 1905.28 445.375C1914.9 442.313 1923.65 436.406 1929.78 428.313C1935.9 419.781 1939.19 409.719 1939.19 399.656C1939.19 389.156 1935.9 379.094 1929.78 371ZM1886.47 318.063C1889.97 318.063 1895.22 320.906 1897.4 323.75C1900.25 326.813 1901.56 330.969 1901.78 335.125C1902 338.844 1900.47 342.563 1898.06 345.406C1895.65 348.469 1891.28 350.875 1888.22 351.531H1854.09V318.063H1886.47ZM1909.22 399.656C1909 405.344 1907.03 410.813 1902.65 414.531C1899.15 417.594 1894.78 419.781 1889.97 419.781H1854.09V379.531H1889.97C1895 379.531 1899.15 380.625 1903.53 385C1907.25 388.938 1909.44 394.406 1909.22 399.656Z" fill="#372B43" fill-opacity="0.62"/>
</g>
<g opacity="0.5">
<path d="M208.25 3.28125H182V160.781H212.406V57.9688L284.594 160.781H310.844V3.28125H280.656V106.094L208.25 3.28125Z" fill="#372B43" fill-opacity="0.62"/>
<path d="M413.451 164.063C435.326 164.063 456.982 155.75 471.42 138.25C484.326 122.5 489.357 103.906 489.795 82.0313C489.357 61.0313 484.764 41.7813 471.42 25.5938C457.42 8.53126 436.201 0 413.451 0C390.701 0 369.264 8.3125 355.482 25.5938C342.795 40.9063 337.107 61.0313 337.107 82.0313C337.107 103.031 342.795 122.938 355.482 138.25C369.045 155.313 390.92 164.063 413.451 164.063ZM413.451 136.063C399.889 136.281 386.764 130.813 379.107 120.313C371.014 109.813 368.607 95.8125 368.389 82.0313C368.607 68.25 371.014 54.0312 379.107 43.75C386.764 33.25 399.889 27.7813 413.451 28C427.014 27.7813 439.92 33.25 447.795 43.75C455.67 54.0312 458.295 68.25 458.295 82.0313C458.295 95.8125 455.67 109.813 447.795 120.313C439.92 130.813 427.014 136.281 413.451 136.063Z" fill="#372B43" fill-opacity="0.62"/>
<path d="M625.516 3.28125H496.453V33.0313H546.109V160.781H575.859V33.0313H625.516V3.28125Z" fill="#372B43" fill-opacity="0.62"/>
<path d="M734.59 160.781H765.215L717.09 3.28125H672.684L624.559 160.781H655.184L662.621 136.281H726.934L734.59 160.781ZM671.152 108.281L694.559 31.2813L718.402 108.281H671.152Z" fill="#372B43" fill-opacity="0.62"/>
<path d="M889.779 84C887.373 80.9375 884.748 78.0938 881.904 75.4688C882.123 75.25 882.561 74.8125 882.779 74.375C888.686 66.9375 892.186 57.3125 891.967 48.125C891.748 38.5 888.686 28.875 882.779 21.4375C877.529 13.7813 869.436 8.09375 860.248 5.46875C855.873 3.9375 851.279 3.28125 846.686 3.28125H783.904V160.781H850.404C855.436 160.781 860.467 159.688 865.279 158.375C874.904 155.313 883.654 149.406 889.779 141.313C895.904 132.781 899.186 122.719 899.186 112.656C899.186 102.156 895.904 92.0938 889.779 84ZM846.467 31.0625C849.967 31.0625 855.217 33.9063 857.404 36.75C860.248 39.8125 861.561 43.9688 861.779 48.125C861.998 51.8438 860.467 55.5625 858.061 58.4063C855.654 61.4688 851.279 63.875 848.217 64.5313H814.092V31.0625H846.467ZM869.217 112.656C868.998 118.344 867.029 123.813 862.654 127.531C859.154 130.594 854.779 132.781 849.967 132.781H814.092V92.5313H849.967C854.998 92.5313 859.154 93.625 863.529 98C867.248 101.938 869.436 107.406 869.217 112.656Z" fill="#372B43" fill-opacity="0.62"/>
</g>
</svg>
