<svg width="293" height="82" viewBox="0 0 293 82" fill="none" xmlns="http://www.w3.org/2000/svg">
<path d="M281.31 2.35777C286.331 2.35777 290.399 6.17733 290.399 10.8908V71.8413C290.399 76.5548 286.331 80.3744 281.31 80.3744H10.8196C5.79932 80.3744 1.73114 76.5548 1.73114 71.8413V10.8908C1.73114 6.17733 5.79932 2.35777 10.8196 2.35777H281.31ZM281.31 0.732422H10.8196C4.86883 0.732422 0 5.30371 0 10.8908V71.8413C0 77.4285 4.86883 81.9997 10.8196 81.9997H281.31C287.261 81.9997 292.13 77.4285 292.13 71.8413V10.8908C292.13 5.30371 287.261 0.732422 281.31 0.732422Z" fill="white"/>
<path d="M102.613 21.5375C102.613 23.2441 102.072 24.6053 100.99 25.6008C99.7778 26.7995 98.1765 27.409 96.229 27.409C94.3464 27.409 92.7667 26.7995 91.4467 25.5805C90.1267 24.3615 89.4775 22.8377 89.4775 21.0499C89.4775 19.2417 90.1267 17.7382 91.4467 16.5192C92.7667 15.3002 94.3464 14.6907 96.229 14.6907C97.1595 14.6907 98.0467 14.8532 98.8906 15.1986C99.7345 15.544 100.405 15.991 100.925 16.5598L99.7778 17.6366C98.9122 16.6817 97.7437 16.1941 96.229 16.1941C94.8657 16.1941 93.6756 16.6411 92.6802 17.5554C91.6847 18.4493 91.187 19.6277 91.187 21.0702C91.187 22.5127 91.6847 23.691 92.6802 24.585C93.6756 25.4789 94.8657 25.9462 96.229 25.9462C97.6788 25.9462 98.8906 25.4992 99.8644 24.585C100.492 23.9958 100.86 23.1628 100.946 22.1063H96.229V20.6232H102.526C102.569 20.9483 102.613 21.253 102.613 21.5375Z" fill="white" stroke="white" stroke-width="0.406337" stroke-miterlimit="10"/>
<path d="M112.588 16.4583H106.681V20.3185H112.004V21.7813H106.681V25.6415H112.588V27.1449H105.014V14.9548H112.588V16.4583Z" fill="white" stroke="white" stroke-width="0.406337" stroke-miterlimit="10"/>
<path d="M119.621 27.1449H117.955V16.4583H114.32V14.9548H123.235V16.4583H119.6V27.1449H119.621Z" fill="white" stroke="white" stroke-width="0.406337" stroke-miterlimit="10"/>
<path d="M129.705 27.1449V14.9548H131.371V27.1449H129.705Z" fill="white" stroke="white" stroke-width="0.406337" stroke-miterlimit="10"/>
<path d="M138.773 27.1449H137.106V16.4583H133.471V14.9548H142.386V16.4583H138.751V27.1449H138.773Z" fill="white" stroke="white" stroke-width="0.406337" stroke-miterlimit="10"/>
<path d="M159.286 25.5597C158.009 26.799 156.429 27.4085 154.525 27.4085C152.621 27.4085 151.041 26.799 149.765 25.5597C148.488 24.3204 147.86 22.8169 147.86 21.0494C147.86 19.2818 148.488 17.758 149.765 16.539C151.041 15.2997 152.621 14.6902 154.525 14.6902C156.408 14.6902 157.987 15.2997 159.286 16.539C160.562 17.7783 161.212 19.2818 161.212 21.0494C161.19 22.8372 160.562 24.3407 159.286 25.5597ZM150.998 24.5439C151.95 25.4581 153.14 25.9051 154.525 25.9051C155.91 25.9051 157.1 25.4581 158.052 24.5439C159.004 23.6296 159.502 22.4715 159.502 21.0494C159.502 19.6272 159.026 18.4691 158.052 17.5549C157.1 16.6406 155.91 16.1733 154.525 16.1733C153.14 16.1733 151.95 16.6203 150.998 17.5345C150.046 18.4691 149.548 19.6272 149.548 21.0494C149.548 22.4715 150.046 23.6296 150.998 24.5439Z" fill="white" stroke="white" stroke-width="0.406337" stroke-miterlimit="10"/>
<path d="M163.549 27.1449V14.9548H165.583L171.902 24.4428H171.967L171.902 22.086V14.9548H173.568V27.1449H171.837L165.237 17.21H165.172L165.237 19.5668V27.1449H163.549Z" fill="white" stroke="white" stroke-width="0.406337" stroke-miterlimit="10"/>
<path d="M147.45 44.9212C142.365 44.9212 138.21 48.558 138.21 53.5559C138.21 58.5335 142.365 62.1906 147.45 62.1906C152.536 62.1906 156.69 58.5335 156.69 53.5559C156.69 48.558 152.536 44.9212 147.45 44.9212ZM147.45 58.7977C144.659 58.7977 142.257 56.6441 142.257 53.5559C142.257 50.4474 144.659 48.3142 147.45 48.3142C150.242 48.3142 152.644 50.4474 152.644 53.5559C152.644 56.6441 150.22 58.7977 147.45 58.7977ZM127.283 44.9212C122.197 44.9212 118.043 48.558 118.043 53.5559C118.043 58.5335 122.197 62.1906 127.283 62.1906C132.368 62.1906 136.523 58.5335 136.523 53.5559C136.523 48.558 132.368 44.9212 127.283 44.9212ZM127.283 58.7977C124.491 58.7977 122.089 56.6441 122.089 53.5559C122.089 50.4474 124.491 48.3142 127.283 48.3142C130.074 48.3142 132.476 50.4474 132.476 53.5559C132.476 56.6441 130.074 58.7977 127.283 58.7977ZM103.306 47.5827V51.2398H112.655C112.373 53.2918 111.637 54.8156 110.534 55.8517C109.171 57.1317 107.05 58.5335 103.328 58.5335C97.572 58.5335 93.071 54.1857 93.071 48.7814C93.071 43.3772 97.572 39.0294 103.328 39.0294C106.422 39.0294 108.695 40.1671 110.361 41.6502L113.109 39.07C110.772 36.9773 107.677 35.3723 103.306 35.3723C95.4297 35.3723 88.8081 41.3861 88.8081 48.8018C88.8081 56.1971 95.4297 62.2312 103.306 62.2312C107.569 62.2312 110.772 60.9309 113.282 58.4726C115.857 56.0549 116.658 52.6417 116.658 49.8989C116.658 49.0456 116.593 48.2532 116.441 47.6031H103.306V47.5827ZM201.354 50.4271C200.596 48.497 198.259 44.9212 193.477 44.9212C188.738 44.9212 184.8 48.4157 184.8 53.5559C184.8 58.3913 188.695 62.1906 193.931 62.1906C198.151 62.1906 200.596 59.7729 201.592 58.371L198.454 56.4003C197.415 57.8428 195.987 58.7977 193.931 58.7977C191.876 58.7977 190.404 57.9037 189.474 56.1768L201.786 51.4023L201.354 50.4271ZM188.803 53.3121C188.695 49.9801 191.551 48.2735 193.607 48.2735C195.208 48.2735 196.571 49.0252 197.026 50.102L188.803 53.3121ZM178.806 61.6827H182.852V36.2866H178.806V61.6827ZM172.184 46.8513H172.032C171.124 45.8355 169.392 44.9212 167.185 44.9212C162.576 44.9212 158.356 48.7205 158.356 53.5965C158.356 58.432 162.576 62.2109 167.185 62.2109C169.371 62.2109 171.124 61.2966 172.032 60.2402H172.162V61.4795C172.162 64.7911 170.28 66.5587 167.25 66.5587C164.783 66.5587 163.247 64.8927 162.619 63.4909L159.092 64.8724C160.109 67.1682 162.793 69.9719 167.25 69.9719C171.989 69.9719 175.992 67.3511 175.992 60.9716V45.4495H172.162V46.8513H172.184ZM167.532 58.7977C164.74 58.7977 162.403 56.6034 162.403 53.5965C162.403 50.549 164.74 48.3345 167.532 48.3345C170.28 48.3345 172.444 50.5693 172.444 53.5965C172.465 56.6034 170.301 58.7977 167.532 58.7977ZM220.31 36.2866H210.637V61.6827H214.683V52.0525H220.331C224.81 52.0525 229.203 49.0049 229.203 44.1695C229.203 39.3341 224.767 36.2866 220.31 36.2866ZM220.396 48.5173H214.662V39.8014H220.396C223.426 39.8014 225.135 42.1581 225.135 44.1492C225.135 46.1403 223.426 48.5173 220.396 48.5173ZM245.368 44.8806C242.446 44.8806 239.417 46.0996 238.162 48.7611L241.754 50.163C242.511 48.7611 243.94 48.2938 245.433 48.2938C247.532 48.2938 249.652 49.4722 249.674 51.5649V51.829C248.938 51.443 247.38 50.8538 245.454 50.8538C241.581 50.8538 237.664 52.8448 237.664 56.5628C237.664 59.9557 240.823 62.1499 244.372 62.1499C247.077 62.1499 248.592 61.0122 249.522 59.6713H249.652V61.642H253.547V51.9102C253.569 47.3999 249.977 44.8806 245.368 44.8806ZM244.87 58.7977C243.55 58.7977 241.711 58.1678 241.711 56.6441C241.711 54.6937 244.004 53.9419 245.995 53.9419C247.77 53.9419 248.614 54.3076 249.674 54.7952C249.371 57.1317 247.207 58.7977 244.87 58.7977ZM267.764 45.4292L263.133 56.4409H263.004L258.2 45.4292H253.85L261.056 60.8293L256.945 69.3827H261.164L272.265 45.4292H267.764ZM231.41 61.6827H235.457V36.2866H231.41V61.6827Z" fill="white"/>
<path d="M22.5901 16.0509C21.9626 16.6807 21.5947 17.6559 21.5947 18.8953V63.8362C21.5947 65.0959 21.9626 66.0711 22.5901 66.6806L22.7416 66.8228L49.5527 41.6705V41.3657V41.061L22.7416 15.9087L22.5901 16.0509Z" fill="url(#paint0_linear)"/>
<path d="M58.4923 50.0612L49.5552 41.6703V41.3656V41.0608L58.4923 32.6699L58.687 32.7715L69.2687 38.4196C72.2982 40.0247 72.2982 42.6659 69.2687 44.2912L58.687 49.9393L58.4923 50.0612Z" fill="url(#paint1_linear)"/>
<path d="M58.6859 49.96L49.5542 41.366L22.5918 66.6808C23.5872 67.6763 25.2318 67.7982 27.0927 66.8027L58.6859 49.96Z" fill="url(#paint2_linear)"/>
<path d="M58.686 32.7922L27.0712 15.9292C25.2103 14.9337 23.5657 15.0556 22.5703 16.0511L49.5543 41.3659L58.686 32.7922Z" fill="url(#paint3_linear)"/>
<path opacity="0.2" d="M58.4909 49.7568L27.0709 66.5182C25.3181 67.4528 23.7384 67.3918 22.743 66.5385L22.5916 66.6807L22.743 66.823C23.7601 67.6763 25.3181 67.7372 27.0709 66.8026L58.6857 49.9397L58.4909 49.7568Z" fill="black"/>
<path opacity="0.12" d="M22.59 66.3961C21.9624 65.7663 21.5945 64.7911 21.5945 63.5518V63.8565C21.5945 65.1161 21.9624 66.0913 22.59 66.7008L22.7415 66.5586L22.59 66.3961Z" fill="black"/>
<path opacity="0.12" d="M69.2682 44.0071L58.4702 49.7568L58.665 49.9396L69.2466 44.2916C70.7613 43.4789 71.5187 42.4224 71.5187 41.366C71.4105 42.3209 70.6531 43.2757 69.2682 44.0071Z" fill="black"/>
<path opacity="0.25" d="M27.0713 16.2136L69.268 38.7247C70.6313 39.4561 71.4103 40.3907 71.5402 41.3659C71.5402 40.3094 70.7828 39.2326 69.268 38.4402L27.0713 15.9292C24.0418 14.3242 21.575 15.6651 21.575 18.9158V19.2205C21.575 15.9495 24.0635 14.6086 27.0713 16.2136Z" fill="white"/>
<defs>
<linearGradient id="paint0_linear" x1="47.1715" y1="18.4276" x2="13.1426" y2="54.6714" gradientUnits="userSpaceOnUse">
<stop stop-color="#00A0FF"/>
<stop offset="0.00657445" stop-color="#00A1FF"/>
<stop offset="0.2601" stop-color="#00BEFF"/>
<stop offset="0.5122" stop-color="#00D2FF"/>
<stop offset="0.7604" stop-color="#00DFFF"/>
<stop offset="1" stop-color="#00E3FF"/>
</linearGradient>
<linearGradient id="paint1_linear" x1="73.2164" y1="41.3686" x2="20.8556" y2="41.3686" gradientUnits="userSpaceOnUse">
<stop stop-color="#FFE000"/>
<stop offset="0.4087" stop-color="#FFBD00"/>
<stop offset="0.7754" stop-color="#FFA500"/>
<stop offset="1" stop-color="#FF9C00"/>
</linearGradient>
<linearGradient id="paint2_linear" x1="53.7238" y1="46.0311" x2="7.57791" y2="95.1804" gradientUnits="userSpaceOnUse">
<stop stop-color="#FF3A44"/>
<stop offset="1" stop-color="#C31162"/>
</linearGradient>
<linearGradient id="paint3_linear" x1="15.7912" y1="1.09039" x2="36.3974" y2="23.0375" gradientUnits="userSpaceOnUse">
<stop stop-color="#32A071"/>
<stop offset="0.0685" stop-color="#2DA771"/>
<stop offset="0.4762" stop-color="#15CF74"/>
<stop offset="0.8009" stop-color="#06E775"/>
<stop offset="1" stop-color="#00F076"/>
</linearGradient>
</defs>
</svg>
